HIERARCHY
ROOT Hips
{
	OFFSET -3.958830 18.904000 13.208200
	CHANNELS 6 Xposition Yposition Zposition Zrotation Yrotation Xrotation 
	JOINT LHipJoint
	{
		OFFSET 0.000000 0.000000 0.000000
		CHANNELS 3 Zrotation Yrotation Xrotation
		JOINT LeftUpLeg
		{
			OFFSET 1.800000 -1.400000 0.085000
			CHANNELS 3 Zrotation Yrotation Xrotation
			JOINT LeftLeg
			{
				OFFSET 2.215000 -6.000000 0.000000
				CHANNELS 3 Zrotation Yrotation Xrotation
				JOINT LeftFoot
				{
					OFFSET 2.500000 -6.900000 0.000000
					CHANNELS 3 Zrotation Yrotation Xrotation
					JOINT LeftToeBase
					{
						OFFSET 0.200000 -0.500000 1.950000
						CHANNELS 3 Zrotation Yrotation Xrotation
						End Site
						{
							OFFSET 0.000000 0.000000 0.000000
						}
					}
				}
			}
		}
	}
	JOINT RHipJoint
	{
		OFFSET 0.000000 0.000000 0.000000
		CHANNELS 3 Zrotation Yrotation Xrotation
		JOINT RightUpLeg
		{
			OFFSET -1.800000 -1.400000 0.085000
			CHANNELS 3 Zrotation Yrotation Xrotation
			JOINT RightLeg
			{
				OFFSET -2.215000 -6.000000 0.000000
				CHANNELS 3 Zrotation Yrotation Xrotation
				JOINT RightFoot
				{
					OFFSET -2.500000 -6.900000 0.000000
					CHANNELS 3 Zrotation Yrotation Xrotation
					JOINT RightToeBase
					{
						OFFSET -0.200000 -0.500000 1.950000
						CHANNELS 3 Zrotation Yrotation Xrotation
						End Site
						{
							OFFSET 0.000000 0.000000 0.000000
						}
					}
				}
			}
		}
	}
	JOINT LowerBack
	{
		OFFSET 0.000000 0.000000 0.000000
		CHANNELS 3 Zrotation Yrotation Xrotation
		JOINT Spine
		{
			OFFSET -0.087000 1.940000 -0.288900
			CHANNELS 3 Zrotation Yrotation Xrotation
			JOINT Spine1
			{
				OFFSET 0.000000 1.950000 0.060000
				CHANNELS 3 Zrotation Yrotation Xrotation
				JOINT Neck
				{
					OFFSET 0.000000 0.000000 0.000000
					CHANNELS 3 Zrotation Yrotation Xrotation
					JOINT Neck1
					{
						OFFSET 0.000000 1.600000 0.340000
						CHANNELS 3 Zrotation Yrotation Xrotation
						JOINT Head
						{
							OFFSET 0.000000 1.667000 -0.240000
							CHANNELS 3 Zrotation Yrotation Xrotation
							End Site
							{
								OFFSET 0.000000 0.000000 0.000000
							}
						}
					}
				}
				JOINT LeftShoulder
				{
					OFFSET 0.000000 0.000000 0.000000
					CHANNELS 3 Zrotation Yrotation Xrotation
					JOINT LeftArm
					{
						OFFSET 2.700000 1.550000 -0.730000
						CHANNELS 3 Zrotation Yrotation Xrotation
						JOINT LeftForeArm
						{
							OFFSET 5.450000 0.000000 0.000000
							CHANNELS 3 Zrotation Yrotation Xrotation
							JOINT LeftHand
							{
								OFFSET 3.450000 0.000000 0.000000
								CHANNELS 3 Zrotation Yrotation Xrotation
								JOINT LeftHandIndex1
								{
									OFFSET 0.750000 0.000000 0.000000
									CHANNELS 3 Zrotation Yrotation Xrotation
									End Site
									{
										OFFSET 0.000000 0.000000 0.000000
									}
								}
							}
						}
					}
				}
				JOINT RightShoulder
				{
					OFFSET 0.000000 0.000000 0.000000
					CHANNELS 3 Zrotation Yrotation Xrotation
					JOINT RightArm
					{
						OFFSET -2.700000 1.550000 -0.730000
						CHANNELS 3 Zrotation Yrotation Xrotation
						JOINT RightForeArm
						{
							OFFSET -5.450000 0.000000 0.000000
							CHANNELS 3 Zrotation Yrotation Xrotation
							JOINT RightHand
							{
								OFFSET -3.450000 0.000000 0.000000
								CHANNELS 3 Zrotation Yrotation Xrotation
								JOINT RightHandIndex1
								{
									OFFSET -0.750000 0.000000 0.000000
									CHANNELS 3 Zrotation Yrotation Xrotation
									End Site
									{
										OFFSET 0.000000 0.000000 0.000000
									}
								}
							}
						}
					}
				}
			}
		}
	}
}
MOTION
Frames: 9
Frame Time: 0.016667
0.118330 15.816630 -2.249420 -3.305145 12.964021 -8.805360 -15.748851 11.024284 5.889842 34.783562 1.217285 -32.835332 -20.083536 27.975969 51.080778 1.563483 13.037185 -0.005580 0.336770 0.229860 0.283660 18.158435 -9.407242 2.073388 -34.311806 2.580245 -18.388370 12.775066 -17.901479 45.598484 -0.995756 -8.752648 1.125240 0.132700 -0.124410 0.102610 -2.730541 -1.511396 -9.688652 9.366408 -0.941463 19.497852 -4.877545 2.093748 5.814738 8.942921 2.414966 -14.447474 3.285903 -3.910824 37.542341 -1.714630 -4.269160 -9.430060 -24.172764 -27.316481 12.264224 -37.884971 -6.868273 -1.293591 -38.226968 -22.924432 4.831191 -3.417389 3.351915 0.225530 -0.073140 0.107960 0.049470 6.149749 32.574041 3.252113 -17.307288 25.494718 -12.453340 -70.097509 57.429947 -32.641421 1.904008 -0.777631 0.035670 0.023210 -0.105020 -0.111150 
0.132380 15.826410 -2.250180 -3.334114 12.614823 -8.907260 -15.742032 11.089241 5.826131 34.297890 1.053109 -32.898614 -19.014084 27.582702 51.814706 1.557365 13.008327 -0.001316 0.345830 0.245910 0.284300 18.149384 -9.470627 2.055794 -34.062637 2.519536 -18.388684 12.366473 -17.570535 45.423083 -0.975894 -8.665778 1.152639 0.139590 -0.126900 0.101620 -2.729413 -1.490913 -9.642817 9.188675 -0.919364 19.624783 -4.696507 2.067741 5.881484 8.873188 2.645322 -14.367456 3.755095 -4.000375 37.391643 -1.325190 -4.342620 -9.550260 -24.382884 -27.267028 12.303460 -37.861328 -6.640421 -1.472797 -38.203508 -23.479386 5.000246 -3.409915 3.366224 0.218710 -0.075460 0.110040 0.053670 6.501664 32.369503 3.192024 -16.751208 25.669087 -12.299182 -71.303549 58.185789 -33.860821 1.876605 -0.722184 0.043130 0.020570 -0.112340 -0.105800 
0.151490 15.852480 -2.243660 -3.366526 11.750300 -8.991532 -15.733875 11.206016 5.686205 33.419439 0.914698 -32.792572 -17.169347 26.800754 52.762375 1.521193 12.934844 0.022310 0.347760 0.246180 0.281260 18.127207 -9.631484 2.002884 -33.329335 2.489462 -18.499163 11.189350 -16.737445 45.260950 -0.923843 -8.479604 1.213675 0.148050 -0.109020 0.101680 -2.711125 -1.355142 -9.521917 8.524523 -0.606778 19.455733 -4.097366 2.164980 6.049790 8.730513 3.449824 -14.226124 5.384258 -4.551411 36.806857 -0.758960 -4.626670 -9.338880 -24.730610 -27.223651 12.453638 -37.921729 -6.114750 -1.704204 -38.176629 -24.072335 5.162858 -3.419969 3.374492 0.211070 -0.064300 0.099190 0.062320 7.152963 31.853716 3.029906 -15.231131 26.113532 -11.910105 -72.491452 60.242700 -35.821577 1.805462 -0.595064 0.035200 0.028360 -0.114590 -0.102730 
0.168240 15.881380 -2.235230 -3.531797 10.786652 -8.975698 -15.719156 11.349448 5.516124 32.495792 0.891395 -32.923869 -14.325384 25.664979 54.308408 1.473634 12.830379 0.048965 0.351910 0.249790 0.280860 18.109848 -9.814214 1.943797 -32.353385 2.477926 -18.605739 10.003109 -15.704629 44.609492 -0.855175 -8.195716 1.306323 0.153520 -0.096240 0.105530 -2.710162 -1.211130 -9.381171 7.944631 -0.280432 19.084010 -3.459175 2.293918 6.221534 8.553088 3.892201 -14.060654 6.335396 -4.884955 36.263497 -0.349690 -4.798960 -9.377140 -24.267219 -27.076486 12.563395 -38.494822 -5.840866 -1.897751 -38.758081 -24.989233 5.511291 -3.436291 3.380938 0.205890 -0.056860 0.094270 0.068530 7.108474 31.415759 2.792937 -13.381564 26.583210 -11.520122 -72.575111 62.581244 -37.240852 1.727159 -0.457367 0.033590 0.033650 -0.115890 -0.098990 
0.181170 15.924310 -2.229460 -3.796276 9.883343 -8.983253 -15.698320 11.581257 5.273872 31.319136 0.858792 -33.002014 -10.652128 23.723433 55.558113 1.374942 12.519685 0.125343 0.347340 0.249550 0.275720 18.080744 -10.050679 1.883656 -30.876885 2.481030 -18.681753 8.558205 -14.487291 43.961076 -0.777707 -7.855055 1.423110 0.154670 -0.089890 0.100080 -2.703537 -1.090776 -9.205655 7.094030 0.079296 18.730792 -2.778946 2.437830 6.278145 8.269349 4.457511 -13.918344 7.463808 -5.294368 36.307801 0.171970 -5.029080 -9.243380 -23.845981 -27.024969 12.632643 -39.249370 -5.910244 -1.953504 -38.998825 -25.642721 5.769755 -3.449977 3.375086 0.200590 -0.054260 0.090170 0.067260 7.334238 30.947854 2.592747 -10.348076 26.857930 -10.990401 -72.275385 65.922559 -39.038390 1.612864 -0.229097 0.031500 0.039410 -0.113720 -0.095900 
0.191350 15.967770 -2.231400 -4.408459 8.885244 -9.193851 -15.686531 11.909402 4.994125 30.456957 1.034760 -32.842976 -6.413526 21.220310 56.344478 1.227586 12.029679 0.244833 0.363080 0.268630 0.285440 18.036299 -10.250177 1.847102 -29.105964 2.574499 -18.635372 7.381046 -13.425105 43.492674 -0.731648 -7.539459 1.538451 0.164380 -0.104450 0.086810 -2.662852 -1.152342 -9.045975 6.424171 0.404903 18.783054 -1.755368 2.619612 6.351013 7.828878 4.346887 -13.750572 7.199910 -5.357340 37.005744 0.821550 -5.293290 -10.049290 -23.162686 -26.827516 12.371172 -40.188870 -6.602273 -1.836798 -39.667833 -26.031965 6.031351 -3.444350 3.353226 0.222240 -0.075530 0.104090 0.068830 7.688627 30.730663 2.678669 -7.332163 26.599844 -10.604969 -73.892460 68.514318 -41.933599 1.473179 0.085655 0.028790 0.053970 -0.120330 -0.099830 
0.197780 16.004790 -2.225590 -4.989354 8.302113 -9.160580 -15.661813 12.195416 4.704030 29.390900 1.166768 -32.871418 -2.383700 18.565009 56.418933 1.090340 11.448370 0.407121 0.366750 0.271940 0.276830 18.008932 -10.444887 1.843297 -27.614541 2.603389 -18.560694 6.580247 -12.583030 42.829105 -0.685796 -7.265255 1.638473 0.161590 -0.106540 0.081180 -2.661615 -1.162042 -8.887507 5.566445 0.727599 18.308552 -0.798185 2.736815 6.612119 7.176220 3.739335 -13.647224 5.894644 -5.542376 37.780846 1.369860 -6.149530 -10.250470 -21.705532 -26.637873 12.043357 -41.495850 -7.651477 -1.586559 -40.648970 -26.725569 6.490949 -3.444227 3.346503 0.227260 -0.091090 0.107850 0.075120 7.719549 30.743417 2.956133 -3.545934 26.197998 -10.210742 -75.723295 71.695802 -45.635048 1.302224 0.530183 0.034100 0.059580 -0.122170 -0.089860 
0.200090 16.031050 -2.210440 -5.550938 8.025579 -8.831992 -15.640230 12.434613 4.446351 28.578322 1.340441 -32.870704 1.094069 16.149043 55.803703 0.981857 10.851797 0.583819 0.378390 0.288200 0.265510 17.994261 -10.592641 1.851696 -26.195752 2.635706 -18.852532 5.704342 -11.865956 42.677896 -0.663833 -7.060914 1.713688 0.158430 -0.112460 0.080390 -2.671776 -1.189220 -8.739536 4.372417 0.897341 17.474556 -0.029661 2.617407 6.512523 6.351781 2.753399 -13.375599 3.748358 -5.584292 38.680551 2.111060 -7.216650 -10.610420 -19.834588 -26.234209 11.639412 -43.264608 -8.894492 -1.131168 -41.397238 -26.663052 6.671244 -3.432172 3.350541 0.228480 -0.114270 0.120470 0.090160 7.687857 30.725393 2.948149 1.387248 25.647322 -10.343304 -73.913544 77.810805 -48.973224 1.114717 1.143958 0.052660 0.059590 -0.133170 -0.068510 
0.195610 16.055370 -2.185470 -6.216061 7.875165 -8.568144 -15.626353 12.662134 4.245917 28.239776 1.601700 -32.528637 3.629889 14.245223 54.431068 0.906274 10.279195 0.759887 0.390480 0.310620 0.250440 17.974435 -10.692123 1.864566 -24.705670 2.666476 -18.906992 5.171543 -11.333225 42.540681 -0.655078 -6.890869 1.789043 0.150630 -0.122410 0.070930 -2.665635 -1.303877 -8.646389 3.073324 0.853880 16.551289 0.513811 2.299158 6.449720 5.463755 1.118253 -13.371794 0.288676 -4.961721 40.497558 2.715580 -8.115060 -10.614530 -17.962971 -26.003047 11.214194 -45.332594 -10.332008 -0.527303 -40.912981 -25.718872 6.304214 -3.402483 3.346079 0.225660 -0.143040 0.136040 0.110190 7.792811 31.349628 3.360673 6.673496 24.601292 -10.907988 -58.909311 85.183512 -45.250884 1.422063 0.521212 0.077670 0.061050 -0.150760 -0.041120 
